<svg xmlns="http://www.w3.org/2000/svg" xmlns:xlink="http://www.w3.org/1999/xlink" zoomAndPan="magnify" preserveAspectRatio="xMidYMid meet" version="1.0" viewBox="7.16 162.29 357.08 48.55"><defs><g/><clipPath id="cb428d5049"><path d="M 34 168 L 55.886719 168 L 55.886719 190 L 34 190 Z M 34 168 " clip-rule="nonzero"/></clipPath><clipPath id="6d1cd8b218"><path d="M 7.15625 171 L 29 171 L 29 193 L 7.15625 193 Z M 7.15625 171 " clip-rule="nonzero"/></clipPath></defs><g fill="#fbbe06" fill-opacity="1"><g transform="translate(60.373821, 199.902332)"><g><path d="M 9.25 0 L 15.085938 0 L 15.085938 -20.222656 L 23.234375 -20.222656 L 23.234375 -25.691406 L 1.101562 -25.691406 L 1.101562 -20.222656 L 9.25 -20.222656 Z M 9.25 0 "/></g></g></g><g fill="#fbbe06" fill-opacity="1"><g transform="translate(83.603556, 199.902332)"><g><path d="M 2.789062 0 L 8.367188 0 L 8.367188 -10.128906 C 8.367188 -13.175781 10.058594 -15.011719 12.625 -15.011719 C 15.011719 -15.011719 16.441406 -13.398438 16.441406 -10.570312 L 16.441406 0 L 22.023438 0 L 22.023438 -11.121094 C 22.023438 -16.480469 19.011719 -19.78125 14.019531 -19.78125 C 11.855469 -19.78125 9.835938 -19.121094 8.367188 -17.800781 L 8.367188 -27.160156 L 2.789062 -27.160156 Z M 2.789062 0 "/></g></g></g><g fill="#fbbe06" fill-opacity="1"><g transform="translate(106.943385, 199.902332)"><g><path d="M 11.890625 0.515625 C 16.625 0.515625 20.371094 -1.910156 22.058594 -5.984375 L 16.40625 -5.984375 C 15.488281 -4.699219 13.835938 -3.964844 12 -3.964844 C 9.46875 -3.964844 7.488281 -5.394531 6.972656 -8.039062 L 22.425781 -8.039062 C 22.757812 -15.085938 18.570312 -19.78125 11.964844 -19.78125 C 5.726562 -19.78125 1.429688 -15.636719 1.429688 -9.652344 C 1.429688 -3.632812 5.6875 0.515625 11.890625 0.515625 Z M 7.011719 -11.5625 C 7.632812 -13.910156 9.542969 -15.34375 12 -15.34375 C 14.570312 -15.34375 16.40625 -13.910156 17.03125 -11.5625 Z M 7.011719 -11.5625 "/></g></g></g><g fill="#fbbe06" fill-opacity="1"><g transform="translate(129.659332, 199.902332)"><g/></g></g><g fill="#fbbe06" fill-opacity="1"><g transform="translate(137.182174, 199.902332)"><g><path d="M 12.039062 0.515625 C 18.132812 0.515625 21.875 -2.386719 21.875 -7.230469 C 21.875 -11.304688 19.195312 -13.726562 12.808594 -15.230469 C 8.882812 -16.148438 7.523438 -17.140625 7.523438 -18.71875 C 7.523438 -20.40625 9.027344 -21.433594 11.488281 -21.433594 C 14.167969 -21.433594 15.78125 -20.039062 15.78125 -17.726562 L 21.398438 -17.726562 C 21.398438 -22.902344 17.507812 -26.207031 11.414062 -26.207031 C 5.503906 -26.207031 1.835938 -23.304688 1.835938 -18.609375 C 1.835938 -14.425781 4.660156 -11.929688 10.679688 -10.644531 C 14.3125 -9.875 15.964844 -8.808594 15.964844 -7.011719 C 15.964844 -5.285156 14.425781 -4.292969 12 -4.292969 C 9.175781 -4.292969 7.339844 -5.726562 7.339844 -8.183594 L 1.613281 -8.183594 C 1.613281 -2.863281 5.578125 0.515625 12.039062 0.515625 Z M 12.039062 0.515625 "/></g></g></g><g fill="#fbbe06" fill-opacity="1"><g transform="translate(159.60455, 199.902332)"><g><path d="M 9.210938 0.367188 C 12.074219 0.367188 14.425781 -0.550781 16.074219 -2.238281 L 16.699219 0 L 20.847656 0 L 20.847656 -11.597656 C 20.847656 -16.699219 17.398438 -19.78125 11.636719 -19.78125 C 6.714844 -19.78125 3.488281 -17.433594 2.789062 -13.25 L 8.148438 -13.25 C 8.476562 -14.609375 9.875 -15.527344 11.671875 -15.527344 C 13.875 -15.527344 15.378906 -14.277344 15.378906 -12.367188 L 15.378906 -11.488281 L 8.40625 -11.488281 C 4.40625 -11.488281 1.835938 -9.175781 1.835938 -5.617188 C 1.835938 -1.910156 4.660156 0.367188 9.210938 0.367188 Z M 7.339844 -5.835938 C 7.339844 -7.15625 8.441406 -8 10.128906 -8 L 15.414062 -8 C 15.304688 -5.394531 13.285156 -3.632812 10.496094 -3.632812 C 8.589844 -3.632812 7.339844 -4.515625 7.339844 -5.835938 Z M 7.339844 -5.835938 "/></g></g></g><g fill="#fbbe06" fill-opacity="1"><g transform="translate(181.770037, 199.902332)"><g><path d="M 8.332031 0 L 13.910156 0 L 21.949219 -19.269531 L 15.890625 -19.269531 L 13.691406 -13.214844 L 11.15625 -6.679688 L 8.589844 -13.214844 L 6.421875 -19.269531 L 0.332031 -19.269531 Z M 8.332031 0 "/></g></g></g><g fill="#fbbe06" fill-opacity="1"><g transform="translate(202.944663, 199.902332)"><g><path d="M 11.890625 0.515625 C 16.625 0.515625 20.371094 -1.910156 22.058594 -5.984375 L 16.40625 -5.984375 C 15.488281 -4.699219 13.835938 -3.964844 12 -3.964844 C 9.46875 -3.964844 7.488281 -5.394531 6.972656 -8.039062 L 22.425781 -8.039062 C 22.757812 -15.085938 18.570312 -19.78125 11.964844 -19.78125 C 5.726562 -19.78125 1.429688 -15.636719 1.429688 -9.652344 C 1.429688 -3.632812 5.6875 0.515625 11.890625 0.515625 Z M 7.011719 -11.5625 C 7.632812 -13.910156 9.542969 -15.34375 12 -15.34375 C 14.570312 -15.34375 16.40625 -13.910156 17.03125 -11.5625 Z M 7.011719 -11.5625 "/></g></g></g><g fill="#fbbe06" fill-opacity="1"><g transform="translate(225.660616, 199.902332)"><g><path d="M 2.789062 0 L 8.367188 0 L 8.367188 -8.515625 C 8.367188 -12.664062 10.3125 -14.203125 13.507812 -14.203125 L 15.636719 -14.203125 L 15.636719 -19.269531 L 13.542969 -19.269531 C 10.71875 -19.269531 8.917969 -18.5 7.671875 -16.699219 L 6.9375 -19.269531 L 2.789062 -19.269531 Z M 2.789062 0 "/></g></g></g><g fill="#fbbe06" fill-opacity="1"><g transform="translate(241.440581, 199.902332)"><g/></g></g><g fill="#fbbe06" fill-opacity="1"><g transform="translate(248.963429, 199.902332)"><g><path d="M 12.039062 0.515625 C 18.132812 0.515625 21.875 -2.386719 21.875 -7.230469 C 21.875 -11.304688 19.195312 -13.726562 12.808594 -15.230469 C 8.882812 -16.148438 7.523438 -17.140625 7.523438 -18.71875 C 7.523438 -20.40625 9.027344 -21.433594 11.488281 -21.433594 C 14.167969 -21.433594 15.78125 -20.039062 15.78125 -17.726562 L 21.398438 -17.726562 C 21.398438 -22.902344 17.507812 -26.207031 11.414062 -26.207031 C 5.503906 -26.207031 1.835938 -23.304688 1.835938 -18.609375 C 1.835938 -14.425781 4.660156 -11.929688 10.679688 -10.644531 C 14.3125 -9.875 15.964844 -8.808594 15.964844 -7.011719 C 15.964844 -5.285156 14.425781 -4.292969 12 -4.292969 C 9.175781 -4.292969 7.339844 -5.726562 7.339844 -8.183594 L 1.613281 -8.183594 C 1.613281 -2.863281 5.578125 0.515625 12.039062 0.515625 Z M 12.039062 0.515625 "/></g></g></g><g fill="#fbbe06" fill-opacity="1"><g transform="translate(271.385805, 199.902332)"><g><path d="M 12.074219 0 L 15.597656 0 L 15.597656 -4.84375 L 13.285156 -4.84375 C 11.085938 -4.84375 10.058594 -5.910156 10.058594 -8.148438 L 10.058594 -14.71875 L 15.34375 -14.71875 L 15.34375 -19.269531 L 10.058594 -19.269531 L 10.058594 -24.261719 L 5.726562 -24.261719 L 5.394531 -21.765625 C 5.101562 -19.78125 4.550781 -19.269531 2.460938 -19.269531 L 0.734375 -19.269531 L 0.734375 -14.71875 L 4.476562 -14.71875 L 4.476562 -7.304688 C 4.476562 -2.605469 7.195312 0 12.074219 0 Z M 12.074219 0 "/></g></g></g><g fill="#fbbe06" fill-opacity="1"><g transform="translate(287.42267, 199.902332)"><g><path d="M 2.789062 0 L 8.367188 0 L 8.367188 -8.515625 C 8.367188 -12.664062 10.3125 -14.203125 13.507812 -14.203125 L 15.636719 -14.203125 L 15.636719 -19.269531 L 13.542969 -19.269531 C 10.71875 -19.269531 8.917969 -18.5 7.671875 -16.699219 L 6.9375 -19.269531 L 2.789062 -19.269531 Z M 2.789062 0 "/></g></g></g><g fill="#fbbe06" fill-opacity="1"><g transform="translate(303.202635, 199.902332)"><g><path d="M 11.890625 0.515625 C 16.625 0.515625 20.371094 -1.910156 22.058594 -5.984375 L 16.40625 -5.984375 C 15.488281 -4.699219 13.835938 -3.964844 12 -3.964844 C 9.46875 -3.964844 7.488281 -5.394531 6.972656 -8.039062 L 22.425781 -8.039062 C 22.757812 -15.085938 18.570312 -19.78125 11.964844 -19.78125 C 5.726562 -19.78125 1.429688 -15.636719 1.429688 -9.652344 C 1.429688 -3.632812 5.6875 0.515625 11.890625 0.515625 Z M 7.011719 -11.5625 C 7.632812 -13.910156 9.542969 -15.34375 12 -15.34375 C 14.570312 -15.34375 16.40625 -13.910156 17.03125 -11.5625 Z M 7.011719 -11.5625 "/></g></g></g><g fill="#fbbe06" fill-opacity="1"><g transform="translate(325.918589, 199.902332)"><g><path d="M 11.890625 0.515625 C 16.625 0.515625 20.371094 -1.910156 22.058594 -5.984375 L 16.40625 -5.984375 C 15.488281 -4.699219 13.835938 -3.964844 12 -3.964844 C 9.46875 -3.964844 7.488281 -5.394531 6.972656 -8.039062 L 22.425781 -8.039062 C 22.757812 -15.085938 18.570312 -19.78125 11.964844 -19.78125 C 5.726562 -19.78125 1.429688 -15.636719 1.429688 -9.652344 C 1.429688 -3.632812 5.6875 0.515625 11.890625 0.515625 Z M 7.011719 -11.5625 C 7.632812 -13.910156 9.542969 -15.34375 12 -15.34375 C 14.570312 -15.34375 16.40625 -13.910156 17.03125 -11.5625 Z M 7.011719 -11.5625 "/></g></g></g><g fill="#fbbe06" fill-opacity="1"><g transform="translate(348.634542, 199.902332)"><g><path d="M 12.074219 0 L 15.597656 0 L 15.597656 -4.84375 L 13.285156 -4.84375 C 11.085938 -4.84375 10.058594 -5.910156 10.058594 -8.148438 L 10.058594 -14.71875 L 15.34375 -14.71875 L 15.34375 -19.269531 L 10.058594 -19.269531 L 10.058594 -24.261719 L 5.726562 -24.261719 L 5.394531 -21.765625 C 5.101562 -19.78125 4.550781 -19.269531 2.460938 -19.269531 L 0.734375 -19.269531 L 0.734375 -14.71875 L 4.476562 -14.71875 L 4.476562 -7.304688 C 4.476562 -2.605469 7.195312 0 12.074219 0 Z M 12.074219 0 "/></g></g></g><g clip-path="url(#cb428d5049)"><path fill="#fbbe06" d="M 45.675781 185.238281 C 46.550781 185.152344 47.34375 184.914062 48.058594 184.515625 C 48.769531 184.121094 49.359375 183.609375 49.828125 182.988281 C 50.296875 182.363281 50.644531 181.660156 50.867188 180.878906 C 51.085938 180.097656 51.15625 179.277344 51.074219 178.417969 L 51.066406 178.359375 C 50.984375 177.503906 50.757812 176.707031 50.386719 175.972656 C 50.015625 175.238281 49.53125 174.609375 48.933594 174.089844 C 48.332031 173.574219 47.648438 173.183594 46.871094 172.921875 C 46.09375 172.660156 45.269531 172.570312 44.390625 172.65625 C 43.492188 172.746094 42.695312 172.984375 41.992188 173.378906 C 41.289062 173.777344 40.703125 174.285156 40.234375 174.910156 C 39.765625 175.53125 39.421875 176.238281 39.199219 177.015625 C 38.976562 177.800781 38.90625 178.621094 38.988281 179.480469 L 38.996094 179.535156 C 39.082031 180.394531 39.308594 181.191406 39.675781 181.925781 C 40.046875 182.660156 40.53125 183.285156 41.128906 183.804688 C 41.730469 184.324219 42.414062 184.714844 43.179688 184.976562 C 43.945312 185.238281 44.777344 185.328125 45.675781 185.238281 Z M 46.011719 189.308594 C 44.46875 189.457031 43.019531 189.324219 41.671875 188.90625 C 40.320312 188.488281 39.128906 187.863281 38.09375 187.03125 C 37.0625 186.199219 36.21875 185.183594 35.574219 183.984375 C 34.925781 182.785156 34.535156 181.472656 34.394531 180.042969 L 34.390625 179.984375 C 34.25 178.554688 34.386719 177.1875 34.800781 175.890625 C 35.210938 174.585938 35.84375 173.417969 36.695312 172.382812 C 37.546875 171.347656 38.601562 170.492188 39.855469 169.820312 C 41.105469 169.152344 42.507812 168.742188 44.050781 168.589844 C 45.597656 168.441406 47.042969 168.574219 48.394531 168.992188 C 49.742188 169.40625 50.933594 170.03125 51.96875 170.867188 C 53.003906 171.699219 53.84375 172.714844 54.488281 173.914062 C 55.136719 175.109375 55.527344 176.425781 55.667969 177.855469 L 55.671875 177.914062 C 55.8125 179.34375 55.675781 180.707031 55.261719 182.007812 C 54.851562 183.3125 54.21875 184.480469 53.367188 185.515625 C 52.515625 186.550781 51.460938 187.40625 50.210938 188.074219 C 48.957031 188.746094 47.558594 189.15625 46.011719 189.308594 " fill-opacity="1" fill-rule="nonzero"/></g><g clip-path="url(#6d1cd8b218)"><path fill="#fbbe06" d="M 14.5625 191.546875 C 15.910156 191.964844 17.359375 192.097656 18.902344 191.949219 C 20.449219 191.796875 21.847656 191.386719 23.101562 190.714844 C 24.355469 190.046875 25.40625 189.191406 26.257812 188.15625 C 27.109375 187.121094 27.742188 185.949219 28.15625 184.652344 C 28.566406 183.347656 28.703125 181.984375 28.5625 180.554688 L 28.558594 180.496094 C 28.417969 179.066406 28.027344 177.75 27.382812 176.554688 C 26.734375 175.355469 25.894531 174.339844 24.859375 173.507812 C 23.828125 172.675781 22.632812 172.046875 21.285156 171.632812 C 19.933594 171.214844 18.488281 171.082031 16.941406 171.230469 C 15.398438 171.382812 14 171.792969 12.746094 172.464844 C 11.492188 173.132812 10.441406 173.988281 9.585938 175.023438 C 8.734375 176.058594 8.105469 177.226562 7.691406 178.527344 C 7.277344 179.832031 7.140625 181.195312 7.28125 182.625 L 7.285156 182.683594 C 7.425781 184.113281 7.820312 185.429688 8.464844 186.625 C 9.109375 187.824219 9.949219 188.839844 10.984375 189.671875 C 12.019531 190.503906 13.210938 191.128906 14.5625 191.546875 " fill-opacity="1" fill-rule="nonzero"/></g><path fill="#ffffff" d="M 12.488281 179.789062 C 12.488281 179.789062 11.160156 177.820312 13.132812 177.449219 C 15.097656 177.074219 18.894531 174.925781 24.996094 181.035156 C 24.996094 181.035156 24.53125 182.351562 24.058594 182.230469 C 23.582031 182.109375 17.625 179.644531 12.628906 184.566406 C 12.628906 184.566406 10.726562 183.96875 11.457031 182.9375 C 12.191406 181.90625 16.492188 178.871094 21.074219 179.691406 C 19.113281 178.546875 14.375 178.660156 12.488281 179.789062 " fill-opacity="1" fill-rule="nonzero"/><path fill="#fbbe06" d="M 35.921875 169.722656 C 35.921875 169.722656 40.234375 162.859375 50.4375 164.914062 C 50.4375 164.914062 51.296875 163.652344 50.542969 163.027344 C 49.789062 162.398438 40.472656 160.195312 35.25 168.429688 C 35.25 168.429688 34.640625 169.101562 35.136719 169.570312 C 35.628906 170.035156 35.921875 169.722656 35.921875 169.722656 " fill-opacity="1" fill-rule="nonzero"/><path fill="#fbbe06" d="M 24.355469 171.328125 C 24.355469 171.328125 17.769531 166.605469 9.097656 172.367188 C 9.097656 172.367188 7.828125 171.523438 8.289062 170.660156 C 8.75 169.792969 16.535156 164.230469 24.488281 169.875 C 24.488281 169.875 25.304688 170.269531 25.023438 170.886719 C 24.746094 171.507812 24.355469 171.328125 24.355469 171.328125 " fill-opacity="1" fill-rule="nonzero"/><path fill="#fbbe06" d="M 15.65625 199.832031 C 15.65625 199.832031 16.695312 196.042969 15.292969 195.886719 C 13.890625 195.730469 11.1875 200.066406 11.914062 201.882812 C 12.644531 203.703125 14.773438 200.820312 14.773438 200.820312 C 20.640625 214.789062 39.445312 213.441406 46.398438 201.105469 C 46.398438 201.105469 48.113281 202.976562 49.046875 202.457031 C 49.984375 201.9375 48.0625 195.289062 45.984375 195.964844 C 43.90625 196.640625 45.878906 199.652344 45.878906 199.652344 C 36.949219 206.75 24.542969 206.953125 15.65625 199.832031 " fill-opacity="1" fill-rule="nonzero"/></svg>